<?xml version="1.0" encoding="UTF-8"?>
<svg id="Layer_1" data-name="Layer 1" xmlns="http://www.w3.org/2000/svg" viewBox="0 0 160 50">
  <defs>
    <style>
      .cls-1 {
        fill: #fff;
      }

      .cls-2 {
        fill: #f58220;
      }

      .cls-3 {
        fill: #ec2030;
      }

      .cls-4 {
        fill: #048162;
      }
    </style>
  </defs>
  <g id="g2862">
    <polygon id="polygon10" class="cls-1" points="54.14 -.18 106.27 -.18 106.27 50.31 54.14 50.31 54.14 -.18"/>
    <polygon id="polygon12" class="cls-4" points="53.87 -.56 106.49 -.56 106.49 50.56 53.87 50.56 53.87 -.56"/>
    <path id="path14" class="cls-1" d="m86.31,47.2v2.05h-12.62v-2.05h-9.55c-.93,0-1.69-.98-1.69-2.18l-4-40.41c0-1.2.93-2.18,2.08-2.18h38.59c1.14,0,2.08.98,2.08,2.18l-3.95,40.41c0,1.2-.76,2.18-1.69,2.18h-9.25s0,0,0,0Z"/>
    <path id="path16" class="cls-2" d="m65.48,8.34h25.84c-2.54.95-10.29,6.2-12.22,9.72h-13.59l-.02-9.72h0Z"/>
    <path id="path18" class="cls-3" d="m86.07,36.2c-.37,3.52-.38,7.81-.38,12.31h-11.2c0-4.5.19-8.79.56-12.31h11.02Z"/>
    <polygon id="polygon20" class="cls-4" points="68.75 31.11 68.75 32.47 66.96 32.47 66.96 33.84 68.75 33.84 68.75 35.4 64.66 35.4 64.66 28.13 68.75 28.13 68.75 29.75 66.96 29.75 66.96 31.11 68.75 31.11"/>
    <polygon id="polygon22" class="cls-4" points="78.27 31.11 78.27 32.47 76.49 32.47 76.49 33.84 78.27 33.84 78.27 35.4 74.18 35.4 74.18 28.13 78.27 28.13 78.27 29.75 76.49 29.75 76.49 31.11 78.27 31.11"/>
    <polygon id="polygon24" class="cls-4" points="88.76 31.11 88.76 32.47 86.97 32.47 86.97 33.84 88.76 33.84 88.76 35.4 84.67 35.4 84.67 28.13 88.76 28.13 88.76 29.75 86.97 29.75 86.97 31.11 88.76 31.11"/>
    <polygon id="polygon26" class="cls-4" points="71.82 28.13 71.82 33.84 73.61 33.84 73.61 35.4 69.52 35.4 69.52 28.13 71.82 28.13"/>
    <polygon id="polygon28" class="cls-4" points="81.57 33.04 80.7 28.13 78.69 28.13 79.83 35.4 82.79 35.4 84.18 28.13 82.47 28.13 81.57 33.04"/>
    <polygon id="polygon30" class="cls-4" points="89.73 28.13 91.94 28.13 91.94 35.4 89.73 35.4 89.73 28.13"/>
    <path id="path32" class="cls-4" d="m91.94,30.29c.12-.8,1.25-.58,1.25-.13v5.25h2.22v-6.17c0-1.31-1.84-1.83-3.45-.68l-.02,1.73h0Z"/>
    <path id="path34" class="cls-3" d="m87.11,27.1c.23-2.79,4.04-7.33,7.74-8.53V7.83c-10.17,4.55-16.77,11.43-18.2,19.25l10.47.03h0Z"/>
  </g>
</svg>