<?xml version="1.0" encoding="UTF-8"?>
<svg id="Layer_1" data-name="Layer 1" xmlns="http://www.w3.org/2000/svg" viewBox="0 0 160 50">
  <defs>
    <style>
      .cls-1 {
        fill: #e21f26;
      }

      .cls-2 {
        fill: #00509d;
      }
    </style>
  </defs>
  <path id="path7-1" class="cls-2" d="m62.02,45.81c-.79,0-1.36.4-1.36,1.15,0,.71.5,1.21,1.25,1.21.5,0,1-.28,1.31-.67v-1.01c0-.34-.44-.67-1.2-.67m16.99-.14c.04,1.33.89,2.3,2.35,2.3.89,0,1.56-.48,1.8-.78.11.08.23.21.23.51,0,.66-.8,1.58-2.66,1.58s-3.4-1.49-3.4-3.44c0-2.15,1.41-3.68,3.5-3.68,1.9,0,2.77,1.4,2.77,2.59,0,.35-.08.68-.23.95h-4.36,0Zm2.65-.86c.3,0,.31-.18.31-.41-.01-.7-.56-1.35-1.4-1.35-1.09,0-1.51.91-1.55,1.76h2.63Zm17.61.73c0,1.63.23,2.46,1.28,2.46,1.15,0,1.46-1.02,1.46-1.95v-1.78c0-.61-.29-.85-.95-.78-.27-.69.64-1.12,1.15-1.22.16-.02.31-.05.45-.05.72,0,1,.45,1,1.12,0,.25-.02.7-.02,2.57,0,.79-.01,1.21-.01,1.34,0,.61.28.93.94.86.27.69-.63,1.01-1.15,1.11-.16.02-.3.05-.42.05-.69,0-.83-.45-.96-1.08-.1.12-.19.22-.37.4-.45.42-1.04.67-1.7.67-.72,0-1.34-.28-1.72-.73-.6-.71-.6-1.63-.6-2.96v-1.28c0-.61-.29-.85-.95-.78-.27-.69.64-1.12,1.15-1.22.16-.02.31-.05.45-.05.72,0,1,.45,1,1.12v2.19s-.01,0-.01,0Zm-3.16.14c0-2.11-1.46-3.55-3.48-3.55-1.87,0-3.53,1.43-3.53,3.55s1.56,3.57,3.47,3.57c2.02,0,3.55-1.46,3.55-3.57m-31.33,1.86c0,.54.35.71.96.79-.04.63-.47.87-.99.92-.57.05-1.14-.22-1.36-.82-.26.24-1.04.84-2.05.84-1.39,0-2.42-.93-2.42-2.19,0-1.34,1.16-2.13,2.8-2.13.56,0,1.15.12,1.5.3v-.89c0-.8-.35-1.31-1.26-1.31-.19,0-.6.05-.92.17.04.13.06.26.06.39,0,.49-.31.89-.84.89-.46,0-.81-.37-.81-.85,0-.87,1.1-1.51,2.62-1.51,1.21,0,1.95.29,2.33.79.35.44.37,1.11.37,2.09v2.53h0Zm29.55-1.76c0,1.62-.7,2.5-1.69,2.5-.87,0-1.72-.88-1.72-2.8,0-1.5.62-2.43,1.65-2.43,1.01,0,1.76,1.04,1.76,2.74m-24.61-2.46c.04.43.4.72.82.72.54,0,.86-.48.86-.94,0-.65-.52-.99-1.05-.99-.6,0-1.24.45-1.6,1.12h-.03c-.11-.59-.4-1.04-1-1.04-.14,0-.29.03-.45.08-.5.15-1.24.54-.96,1.22.7-.13.95.1.95.71v2.9c0,.58-.07.82-.27.99-.19.14-.39.2-.51.23-.29.63.27.82,1.66.82s1.86-.19,1.57-.82c-.12-.03-.47-.08-.66-.23-.2-.17-.29-.41-.29-.99v-1.75c0-1.56.57-1.97.95-2.05m17.18-1.01h1.79c.21.51-.07.92-.47.96-.12.01-.26.01-.39.01-.33,0-.65-.03-.87-.03v3.86c0,.58.1.82.3.99.19.14.62.2.75.23.29.63-.39.82-1.77.82s-1.96-.19-1.67-.82c.12-.03.33-.08.51-.23.2-.17.27-.41.27-.99v-3.89l-1.05-.04c-.21-.51.07-.87.5-.87h.53v-.5c0-1.01.19-1.57.44-1.95.39-.6,1.05-1.01,2.08-1.01,1.31,0,2.37.61,2.37,1.54,0,.4-.27.89-.85.89-.42,0-.82-.36-.82-.81,0-.19.08-.39.17-.51-.15-.17-.46-.26-.76-.26-.86,0-1.05.64-1.05,1.44v1.17h0Zm-11.5,1.01c.04.43.4.72.82.72.54,0,.86-.48.86-.94,0-.65-.52-.99-1.05-.99-.6,0-1.24.45-1.6,1.12h-.03c-.11-.59-.4-1.04-1-1.04-.14,0-.29.03-.45.08-.5.15-1.24.54-.96,1.22.7-.13.95.1.95.71v2.9c0,.58-.07.82-.27.99-.19.14-.39.2-.51.23-.29.63.27.82,1.66.82s1.86-.19,1.57-.82c-.12-.03-.47-.08-.66-.23-.2-.17-.29-.41-.29-.99v-1.75c0-1.56.57-1.97.95-2.05m33.23,0c.04.43.41.72.83.72.53,0,.85-.48.85-.94,0-.65-.52-.99-1.05-.99-.6,0-1.23.45-1.59,1.12h-.04c-.11-.59-.4-1.04-.99-1.04-.15,0-.29.03-.46.08-.49.15-1.23.54-.96,1.22.7-.13.95.1.95.71v2.9c0,.58-.07.82-.28.99-.18.14-.38.2-.5.23-.29.63.28.82,1.66.82s1.85-.19,1.56-.82c-.12-.03-.47-.08-.66-.23-.19-.17-.27-.41-.27-.99v-1.75c0-1.56.56-1.97.94-2.05"/>
  <path id="path11-4" class="cls-2" d="m49.68,44.31c0,3.15,2.17,5.02,4.53,5.02,2.12,0,3.61-1.49,3.61-2.73,0-.66-.41-1.14-.95-1.14s-1.01.37-1.01,1.01c0,.41.22.64.39.82-.29.56-.9,1.01-1.85,1.01-1.57,0-2.71-1.64-2.71-3.99s1.09-4.01,2.66-4.01c.95,0,1.56.46,1.85,1.01-.16.19-.39.41-.39.82,0,.64.46,1.01,1.01,1.01s.95-.49.95-1.15c0-1.24-1.49-2.73-3.61-2.73-2.36,0-4.48,2.05-4.48,5.06"/>
  <path id="path15-9" class="cls-1" d="m70.13,1.76l-13.25,12.81c-.66.56-1.08,1.22-1.08,2.17s.42,1.6,1.08,2.17l13.25,12.81c.09.09.17.12.24.12.13,0,.21-.11.21-.25,0-.08-.04-.17-.12-.25-3.11-3.86-5.37-8.29-5.37-14.56s2.26-10.78,5.37-14.65c.08-.08.11-.17.12-.25,0-.14-.08-.25-.21-.25-.07,0-.15.03-.24.12"/>
  <path id="path17-4" class="cls-2" d="m80.31.68c-5.19,0-7.21,7.35-7.21,16.11s2.03,16.02,7.21,16.02c3.11,0,5.77-1.82,5.77-3.32,0-.33-.12-.64-.4-.92-1.48-1.43-2.05-2.85-2.06-4.11,0-2.4,2.07-4.19,3.99-4.19,2.64,0,4.19,2.07,4.19,4.76,0,2.54-1.08,4.66-2.26,6.36-.05.07-.07.15-.07.21,0,.13.08.24.2.24.07,0,.15-.04.25-.13l13.25-12.81c.66-.57,1.08-1.23,1.08-2.17s-.42-1.6-1.08-2.17l-13.25-12.81c-.09-.09-.17-.13-.25-.13-.12,0-.2.11-.2.24,0,.07.02.14.07.22,1.18,1.69,2.26,3.82,2.26,6.36,0,2.68-1.56,4.76-4.19,4.76-1.92,0-4-1.79-3.99-4.19,0-1.26.58-2.68,2.06-4.11.28-.28.4-.59.4-.92,0-1.5-2.66-3.32-5.77-3.32"/>
</svg>