<?xml version="1.0" encoding="UTF-8"?>
<svg id="Layer_1" data-name="Layer 1" xmlns="http://www.w3.org/2000/svg" viewBox="0 0 160 50">
  <defs>
    <style>
      .cls-1 {
        fill: #fff;
      }

      .cls-2 {
        fill: #e21d39;
      }

      .cls-3 {
        fill: #055faa;
      }
    </style>
  </defs>
  <path class="cls-1" d="m157.56,12.16c-2.73-3.31-7.55-5.21-13.23-5.21-6,0-11.4,2.04-15.14,5.35l.61-3.82-1.62-.48c-2.3-.68-4.85-1.05-7.37-1.05-4.34,0-8.5,1.34-11.86,3.56l.97-3.18h-25.98l-.31,1.02c-2.31-.93-4.85-1.39-7.71-1.39-5.35,0-11.14,2.08-14.14,6.07-.2-.29-.4-.58-.63-.86-2.73-3.31-7.55-5.21-13.23-5.21s-11.09,1.92-14.81,5.06l1.45-8.82-1.65-.48c-2.81-.81-5.94-1.24-9.04-1.24C12.49,1.48,2.12,8.72.28,17.95c-.78,3.93.13,7.74,2.58,10.72,2.09,2.54,5.16,4.35,8.82,5.28H.4v14.43h57.45l.09-.18v.18h6.93l.94-1.53-.29,1.53h15.64l.23-1.21c1.37.89,3.16,1.37,5.21,1.37,1.84,0,3.54-.38,5.01-1.06l-.17.89h21.92l.04-.2c1.02.23,2.08.36,3.1.36.62,0,1.26-.06,1.89-.17h8.36l.62-1.32h.56l.17,1.32h25.78l1.28-6.75h-.47l.18-.93h.34l1.28-6.75h-.71c.58-.53,1.01-1.2,1.15-1.97.17-.91-.06-1.84-.65-2.55-.15-.18-.33-.34-.52-.49,2.04-2.1,3.46-4.64,4.01-7.5.67-3.51-.09-6.71-2.2-9.27h0Zm-14.91,28.96h-.79l1.19-6.28c.27-.04.54-.07.81-.12l-1.21,6.39h0Zm-18.45-20.42c-.08.42-.14.83-.18,1.24-1.74,1.16-3.37,1.71-5.11,1.71-1.18,0-2.2-.39-2.73-1.03-.3-.37-.4-.78-.31-1.25.31-1.61,2.49-3.02,4.67-3.02,1.36,0,2.64.48,3.89,1.46-.08.29-.16.58-.22.88h0Zm1.76,13.24l-.85,1.4-.71-.4c-.46-.26-.96-.46-1.48-.64.38-.09.73-.19,1.03-.3l.99-.36.97-4.27c.13.18.26.37.4.55,1.47,1.78,3.58,3.14,6.14,4.01h-6.5.01Zm8.61.59l-.34,1.78-.47-1.97c.27.07.53.14.81.2h0Zm8.27-15.99c1.06,0,1.87.28,2.3.79.39.47.37,1.07.29,1.49-.34,1.74-2.12,2.95-4.35,2.95-1.08,0-1.94-.29-2.35-.78-.28-.34-.37-.83-.25-1.44.29-1.5,1.88-3.02,4.36-3.02h0Zm-48.92,16.7c-.3-.21-.64-.39-.98-.55h1.09s-.11.55-.11.55Zm-5.98,5.88c-.14.12-.37.21-.63.22.14-.12.35-.21.63-.22Zm-1.7-22.41l-1.29,4.25c-.08-1.13-.44-2.17-1.06-3.08-.26-.38-.56-.72-.9-1.04l3.24-.12h.01Zm-37.23,2.12c-.34,1.74-2.12,2.96-4.35,2.96-1.08,0-1.94-.29-2.35-.78-.28-.34-.37-.83-.25-1.44.29-1.5,1.88-3.02,4.36-3.02,1.06,0,1.88.28,2.3.79.39.47.37,1.07.29,1.49h0Zm14.91,13.81l-.04.09v-.1h.04Zm19.2-5.65l-1.51,4.96h-5.79c2.96-.98,5.61-2.61,7.29-4.96h.01Zm.63,5.71h.32c-.12.05-.24.1-.35.16l.03-.16Zm-62.25-13.02c-1.65,0-3.08-.54-3.83-1.45-.43-.53-.58-1.11-.44-1.78.43-2.16,3.31-3.99,6.29-3.99,2.01,0,3.87.75,5.69,2.3-.48.9-.86,1.84-1.14,2.82-2.22,1.42-4.32,2.1-6.57,2.1Zm34.03,10.23l1.88.85c1.04.47,2.19.87,3.4,1.2h-3.5l-.37.75-.05-.75h-6.05c1.69-.52,3.26-1.21,4.68-2.05h0Zm45.81,9.22l1.36-7.17h-6.62l4.64-15.28,1.41.05c-.26.7-.48,1.41-.62,2.14-.66,3.41.14,6.7,2.26,9.27,1.4,1.69,3.31,2.98,5.55,3.82h-5.83l-1.36,7.17h-.79Zm-73.72-7.71l1-.35.87-3.7c.14.19.27.39.42.58,1.47,1.78,3.58,3.14,6.14,4.01h-10.56c.8-.15,1.53-.33,2.13-.54Zm119.64.54c.86-.26,1.68-.57,2.48-.92.12.28.26.55.45.79.04.05.1.09.14.13h-3.07,0Z"/>
  <path class="cls-3" d="m55.08,35.87l.4,6.3h.1c.21-.64.44-1.32.76-1.95l2.17-4.36h3.53l.53,6.3h.1c.18-.62.39-1.26.67-1.86l2.12-4.44h4.79l-6.48,10.56h-4.02l-.35-5.74h-.15c-.15.55-.29,1.08-.54,1.6l-2.07,4.15h-3.92l-2.43-10.56h4.79Z"/>
  <path class="cls-3" d="m69.92,35.87h4.44l-.68,3.56h2.82l.68-3.56h4.44l-2.01,10.56h-4.44l.7-3.67h-2.83l-.7,3.67h-4.44l2.01-10.56h.01Z"/>
  <path class="cls-3" d="m94.63,41.18c-.64,3.39-4.18,5.42-8.04,5.42s-6.63-2.03-5.98-5.42c.63-3.32,4.2-5.48,8.05-5.48s6.6,2.16,5.97,5.48h0Zm-9.39.06c-.23,1.2.59,2.03,1.98,2.03s2.53-.83,2.76-2.03c.21-1.12-.52-2.06-1.98-2.06s-2.55.94-2.76,2.06Zm10.4-5.37h4.61l-1.36,7.17h3.87l-.65,3.39h-8.47l2.01-10.56h-.01Zm18.01,6.78l.21.15c.72.53,1.63.97,2.69.97.45,0,1.21-.15,1.3-.63s-.51-.52-.91-.59l-.9-.14c-1.75-.27-3.09-1.15-2.78-2.8.48-2.51,3.48-3.91,6.24-3.91,1.45,0,2.72.3,3.84.92l-1.76,2.7c-.7-.45-1.53-.8-2.52-.8-.4,0-1.02.12-1.1.56-.08.39.49.45.83.52l1.01.2c1.88.37,3.13,1.23,2.79,3.03-.48,2.52-3.48,3.77-6.22,3.77-1.6,0-3.38-.36-4.69-.97l1.98-2.98h-.01Z"/>
  <path class="cls-3" d="m129.47,42.61l-.18-1.86c-.05-.45-.05-.91-.04-1.36h-.17l-1.45,3.22h1.85-.01Zm-4.01,3.83h-4.88l6.41-10.56h5.09l2.52,10.56h-4.88l-.17-1.32h-3.48l-.62,1.32h.01Z"/>
  <path class="cls-3" d="m136.23,35.87h4.61l-1.36,7.17h3.87l-.65,3.39h-8.47l2.01-10.56h0Zm9.33,0h8.53l-.55,2.89h-3.89l-.19,1.01h3.55l-.52,2.75h-3.55l-.2,1.04h4.02l-.55,2.89h-8.66l2.01-10.56v-.02Z"/>
  <g>
    <path class="cls-2" d="m83.05,16.88l5.82-.22-4.88,16.08h10.44l4.88-16.08,5.69.22,2.32-7.64h-21.94l-2.32,7.64h-.01Zm-21.61,4.18c-1.46,7.54-9.46,12.06-18.22,12.06s-15.01-4.52-13.55-12.06c1.43-7.39,9.52-12.19,18.24-12.19s14.95,4.8,13.52,12.19h0Zm-21.28.12c-.52,2.68,1.34,4.52,4.5,4.52s5.73-1.84,6.24-4.52c.48-2.49-1.17-4.58-4.48-4.58s-5.77,2.09-6.26,4.58h0Z"/>
    <path class="cls-2" d="m58.2,30.97c2.98,1.34,7.01,2.15,10.63,2.15,6.21,0,12.99-2.77,14.08-8.38.77-3.99-2.05-5.92-6.31-6.73l-2.28-.44c-.77-.16-2.04-.28-1.87-1.15.19-.97,1.57-1.25,2.49-1.25,2.25,0,4.12.78,5.71,1.78l3.98-6.02c-2.55-1.4-5.43-2.06-8.71-2.06-6.25,0-13.06,3.12-14.14,8.7-.71,3.68,2.34,5.64,6.3,6.23l2.03.31c.92.16,2.28.25,2.07,1.31s-1.91,1.4-2.94,1.4c-2.4,0-4.46-.97-6.1-2.15l-.47-.34-4.48,6.64h0ZM127.63,9.84c-2.09-.62-4.46-.97-6.82-.97-8.42,0-16.07,5.49-17.39,12.34-1.3,6.7,4.1,11.91,12.29,11.91,1.87,0,5.8-.28,7.61-.94l2.01-8.79c-1.94,1.34-4,2.18-6.4,2.18-3.12,0-5.44-2-4.94-4.58.49-2.56,3.44-4.58,6.56-4.58,2.36,0,4.24,1.09,5.68,2.37l1.42-8.95h-.02Zm16.71-.97c-8.72,0-16.81,4.8-18.24,12.19-1.46,7.54,4.79,12.06,13.55,12.06s16.76-4.52,18.22-12.06c1.43-7.39-4.8-12.19-13.53-12.19Zm-1.5,7.73c3.31,0,4.97,2.09,4.48,4.58-.52,2.68-3.08,4.52-6.24,4.52s-5.01-1.84-4.5-4.52c.48-2.49,2.94-4.58,6.26-4.58h0ZM32.37,4.56c-2.61-.75-5.56-1.17-8.51-1.17C13.36,3.39,3.82,10.02,2.17,18.31c-1.62,8.1,5.11,14.39,15.32,14.39,2.33,0,7.24-.34,9.49-1.13l2.5-10.63c-2.41,1.62-4.99,2.64-7.99,2.64-3.9,0-6.79-2.41-6.16-5.54.62-3.09,4.29-5.54,8.18-5.54,2.94,0,5.29,1.32,7.08,2.86l1.78-10.81h0Z"/>
    <path class="cls-2" d="m151.44,31.61c.16-.82,1.07-1.48,2.07-1.48s1.66.66,1.5,1.48c-.16.83-1.08,1.49-2.07,1.49s-1.66-.66-1.5-1.49Zm3.1,0c.12-.66-.35-1.09-1.11-1.09s-1.4.43-1.53,1.09c-.13.66.33,1.1,1.11,1.1s1.4-.44,1.53-1.1h0Zm-.64.78h-.46l-.29-.66h-.3l-.12.66h-.39l.3-1.55h.9c.4,0,.61.11.55.48-.05.27-.26.4-.5.42l.33.66h-.02Zm-.57-.95c.2,0,.36,0,.4-.17.03-.14-.14-.14-.34-.14h-.42l-.06.3h.42Z"/>
  </g>
  <path class="cls-3" d="m2.9,46.45h48.85v-.02h-.04l-.62-2.69H2.9v2.7h0Zm0-3.84h47.92l-.62-2.7H2.9v2.7Zm0-3.86h47.02l-.21-.98-.43-1.88H2.9v2.86Zm102.07-2.88h8.52l-.55,2.89h-3.88l-.19,1.01h3.55l-.52,2.75h-3.55l-.2,1.04h4.02l-.55,2.89h-8.66l2.01-10.56v-.02Z"/>
</svg>