<?xml version="1.0" encoding="UTF-8"?>
<svg id="Layer_1" data-name="Layer 1" xmlns="http://www.w3.org/2000/svg" viewBox="0 0 160 50">
  <defs>
    <style>
      .cls-1 {
        fill: #f57f20;
      }

      .cls-2 {
        fill: #ed2224;
      }

      .cls-3 {
        fill: #010101;
      }
    </style>
  </defs>
  <g id="layer1">
    <path id="path5474" class="cls-2" d="m29.25,26.86h-6.78c-9.97.2-9.45-8.27-9.45-8.27v-7.3H1.24v11.69c0,1.63,1.53,15.73,16.19,15.73h11.82v-11.86"/>
    <path id="path5476" class="cls-1" d="m14.27,11.29v6.51s-.98,7.95,7.59,7.88h7.39v-5.15h-3.29s-6.35.81-6.29-4.07v-5.18h-5.41"/>
    <path id="path5478" class="cls-1" d="m21.05,11.29v4.33s-.49,3.84,4.56,3.71h3.65v-3.81h-2.05s-2.48.16-2.44-2.61v-1.63h-3.71"/>
    <path id="path5480" class="cls-1" d="m26.13,11.29h3.13v3.03s-3.13.49-3.13-1.24v-1.79"/>
    <path id="path5482" class="cls-3" d="m152.08,25.68c-3.29-.75-6.51-1.01-6.51-3.03,0-1.63,1.89-1.89,3.19-1.89,2.05,0,3.78.59,3.94,2.77h5.47c-.46-5.02-4.66-6.51-9.25-6.51-2.12,0-4.27.33-5.96,1.17l.2-.62h-5.9l-3.84,13.81h-.1l-3.58-13.81h-5.6l-3.48,13.84h-.07l-3.84-13.84h-6.09l.2.52c-1.82-.81-4.14-1.07-6.22-1.07-.23,0-.46,0-.65.03-4.1.13-8.11,1.53-9.06,5.57v-11.34h-5.77v10.91c-1.56-3.55-4.66-5.18-7.59-5.18-.68,0-1.34.06-1.99.2-1.86.39-3.55,1.3-4.59,2.83h-.1v-8.76h-5.76v10.46c-1.76-2.96-5.05-4.72-9.25-4.72-6.58,0-10.85,4.27-10.85,10.78,0,1.56.26,3.03.75,4.3h-5.86c-4.72,0-4.66-2.21-4.66-4.01V11.29h-5.8s.07,16.64,0,19.87c0,6.45,5.05,6.65,9.48,6.65h9.87v-1.5c1.82,1.43,4.2,2.22,7.07,2.22,4.2,0,7.49-1.76,9.25-4.72v4.17h5.47v-2.61h.1c.98,1.76,2.74,2.7,4.89,3.03.62.1,1.3.13,1.99.13,2.93,0,6.03-1.63,7.59-5.18v4.63h5.77v-2.35c1.21,1.95,3.58,2.9,6.32,2.9.91,0,1.82-.1,2.74-.29,1.63-.33,3.16-1.04,4.33-2.25.03.68.2,1.37.39,1.99h5.86c-.52-.81-.75-2.67-.75-4.53v-6.12l3.49,10.65h5.96l3.58-13.68h.06l3.71,13.68h5.96l3.88-12.02c1.14,1.79,3.55,2.54,5.99,3.06,4.14.88,6.55,1.47,6.55,3.16,0,1.99-2.12,2.61-3.81,2.61-2.25,0-4.36-.98-4.4-3.42h-5.47c.26,5.37,4.98,7.17,9.87,7.17s9.58-1.73,9.58-7.1c0-3.78-3.32-4.98-6.68-5.73h0Zm-92.21,8.6c-3.91,0-5.08-3.26-5.08-6.48s1.17-6.55,5.08-6.55,5.05,3.29,5.05,6.55c0,3.23-1.17,6.48-5.05,6.48Zm19.74,0h-.03c-3.39,0-4.89-3.13-4.89-6.48s1.5-6.55,4.89-6.55h.03c3.39,0,4.89,3.09,4.89,6.55s-1.5,6.48-4.89,6.48Zm28.47-4.2c0,1.17-.16,4.36-4.1,4.66-.2,0-.39.03-.59.03-1.86,0-3.52-.52-3.52-2.61s1.63-2.64,3.39-3c.23-.03.49-.07.72-.1,1.6-.23,3.26-.36,4.1-1.07v2.08h0Zm-4.1-4.2c-.85.1-1.79.2-2.74.36-2.51.33-5.05.98-6.32,2.96v-5.34h5.6c.2-2.08,1.47-3,3.45-3.09h.36c2.02,0,3.75.39,3.75,2.77,0,1.69-1.76,2.05-4.1,2.35Z"/>
  </g>
</svg>