<?xml version="1.0" encoding="UTF-8"?>
<svg id="Layer_1" data-name="Layer 1" xmlns="http://www.w3.org/2000/svg" viewBox="0 0 160 50">
  <defs>
    <style>
      .cls-1 {
        fill: #0456a0;
      }

      .cls-2 {
        fill: #e42633;
        fill-rule: evenodd;
      }
    </style>
  </defs>
  <path class="cls-2" d="m141.62,2.3c-11.7,0-18.38,6.8-18.38,15.07s6.68,15.07,18.38,15.07,18.38-6.87,18.38-15.07c-.06-8.27-6.74-15.07-18.38-15.07m0,25.76c-5.91,0-9.73-4.9-9.73-10.68s3.82-10.68,9.73-10.68,9.73,4.83,9.73,10.68c-.06,5.79-3.88,10.68-9.73,10.68M1.34,2.87h32.5v7.12c-2.29-1.97-7.19-2.73-12.4-2.73v19.4c0,2.86.25,3.69,1.34,5.15h-10.37c1.14-1.46,1.34-2.29,1.34-5.15V7.26c-5.21,0-10.11.76-12.4,2.73V2.87Zm48.08,24.55c3.31,0,8.9-.76,11.07-2.73v7.12h-23.66c1.14-1.34,1.34-2.29,1.34-5.02V7.96c0-2.8-.19-3.69-1.34-5.02h22.45v7.12c-2.23-1.97-7.76-2.8-11.13-2.8h-2.61v7.69h1.91c1.91,0,4.83-.06,6.74-.76v5.72c-1.91-.7-4.83-.76-6.74-.76h-1.91v8.33l3.88-.06h0Zm31.03-13.42c5.66.76,10.3,2.8,10.3,8.9,0,7.25-6.8,9.54-14.18,9.48-5.15-.06-9.54-.51-12.72-1.84v-6.42c4.58,2.99,9.28,3.94,12.72,3.94s6.87-.89,6.87-3.62-3.05-3.37-9.28-4.32c-5.41-.83-10.3-3.12-10.3-8.46-.06-7.19,6.74-9.35,13.23-9.35,4.2,0,8.27.51,12.02,1.72v7c-3.12-2.8-7.76-4.32-12.34-4.32-3.12,0-6.04,1.02-6.04,3.31,0,2.86,4.32,3.31,9.73,4.01h0ZM112.56,2.3c3.37,0,6.3.38,8.65,1.02v7.19c-2.29-2.35-5.02-3.82-8.59-3.82-6.55,0-10.87,4.58-10.87,10.68s4.39,10.68,10.94,10.68c3.56,0,6.3-1.46,8.59-3.82v7.19c-2.35.64-5.28,1.08-8.65,1.08-11.32,0-19.52-5.66-19.52-15.14-.06-9.48,8.14-15.07,19.46-15.07h0Z"/>
  <path class="cls-1" d="m159.62,39.69h-19.59c-3.18,0-5.72,1.97-6.93,3.43,0,0-3.05,3.18-5.09,4.32l-.06.06-.06.06.06.13h18.7c3.62,0,5.34-1.4,7.63-3.56,0,0,3.05-3.18,5.34-4.2h.06l.06-.06v-.19h-.13"/>
  <path class="cls-1" d="m127.63,39.69h-19.59c-3.18,0-5.72,1.97-6.93,3.43,0,0-3.05,3.18-5.09,4.32l-.06.06-.06.06.06.13h18.7c3.62,0,5.34-1.4,7.63-3.56,0,0,3.05-3.18,5.34-4.2h.06l.06-.06v-.19h-.13"/>
  <path class="cls-1" d="m76.06,39.69h0m19.65,0h-19.59c-3.18,0-5.72,1.97-6.93,3.43,0,0-3.05,3.18-5.09,4.32l-.06.06-.06.06.06.13h18.63c3.62,0,5.34-1.4,7.63-3.56,0,0,3.05-3.18,5.34-4.2h.06l.06-.06v-.19h-.06"/>
  <path class="cls-1" d="m63.72,39.69h-19.59c-3.18,0-5.72,1.97-6.93,3.43,0,0-3.05,3.18-5.09,4.32l-.06.06-.06.06.06.13h18.7c3.62,0,5.34-1.4,7.63-3.56,0,0,3.05-3.18,5.34-4.2h.06l.06-.06v-.19h-.13"/>
  <path class="cls-1" d="m31.8,39.69H12.15c-3.18,0-5.72,1.97-6.93,3.43,0,0-3.05,3.18-5.09,4.32l-.06.06-.06.06.06.13h18.7c3.62,0,5.34-1.4,7.63-3.56,0,0,3.05-3.18,5.34-4.2h.06l.06-.06-.06-.19h0"/>
</svg>