<?xml version="1.0" encoding="UTF-8"?>
<svg id="Layer_1" data-name="Layer 1" xmlns="http://www.w3.org/2000/svg" viewBox="0 0 160 50">
  <defs>
    <style>
      .cls-1 {
        fill: #fcbb30;
      }

      .cls-2 {
        fill: #3374ba;
      }
    </style>
  </defs>
  <path class="cls-1" d="m139.22,17.7c1.04,0,1.94-.55,2.01-1.23l1.04-11.7c0-1.18-1.37-2.08-3.05-2.08s-3.05.97-3.05,2.08l1.04,11.7c.07.69.97,1.23,2.01,1.23m-6.37,3.67c.55-.9.49-1.94-.07-2.35l-9.62-6.72c-.97-.55-2.49.14-3.32,1.59s-.69,3.12.28,3.67l10.66,4.99c.69.21,1.59-.28,2.08-1.18m12.67,0c.55.9,1.45,1.37,2.08,1.1l10.66-4.99c.97-.55,1.18-2.22.28-3.67-.83-1.45-2.35-2.15-3.32-1.59l-9.62,6.72c-.55.49-.62,1.52-.07,2.43m-6.3,10.94c1.04,0,1.94.55,2.01,1.23l1.04,11.7c0,1.18-1.37,2.08-3.05,2.08s-3.05-.97-3.05-2.08l1.04-11.7c.07-.69.97-1.23,2.01-1.23m6.3-3.66c.55-.9,1.45-1.37,2.08-1.1l10.66,4.92c.97.55,1.18,2.22.28,3.67-.83,1.45-2.35,2.15-3.32,1.59l-9.62-6.72c-.55-.42-.62-1.45-.07-2.35m-12.67,0c.55.9.49,1.94-.07,2.35l-9.62,6.72c-.97.55-2.49-.14-3.32-1.59s-.69-3.12.28-3.67l10.66-4.92c.69-.28,1.59.21,2.08,1.1"/>
  <g>
    <path class="cls-2" d="m88.39,29.91c0,.29,0,.64-.12.87-.35,1.1-1.51,2.09-2.96,2.09-1.23,0-2.2-.7-2.2-2.15,0-2.26,2.49-2.84,5.27-2.84v2.03h.01Zm4.41-3.89c0-3.7-1.57-6.96-6.9-6.96-2.74,0-4.93.75-6.09,1.45l.87,2.96c1.1-.7,2.78-1.27,4.47-1.27,2.74,0,3.13,1.51,3.13,2.49v.23c-5.91,0-9.62,2.03-9.62,6.2,0,2.55,1.91,4.93,5.21,4.93,2.03,0,3.7-.81,4.75-2.09h.12s.7,2.84,4.41,1.74c-.17-1.16-.23-2.44-.23-3.94l-.12-5.75M.88,14.02l4.47,18.32c.7,3.01,2.03,4.12,5.75,3.36l2.38-9.8,1.39-6.61h.06c.29,2.49.7,4.25,1.16,6.67l1.51,6.78c.52,2.32,1.91,3.83,5.57,3.01l5.75-21.69h-4.64l-1.97,9.39-1.39,7.36h-.06l-1.27-7.19-2.03-9.57h-4.83l-2.2,9.34-1.57,7.54h-.06c-.42-2.64-.88-5.27-1.39-7.89l-1.74-8.99-4.87-.06m36.82,15.89c0,.29,0,.64-.12.87-.35,1.1-1.51,2.09-2.96,2.09-1.23,0-2.2-.7-2.2-2.15,0-2.26,2.49-2.84,5.27-2.84v2.03h0Zm4.41-3.89c0-3.7-1.57-6.96-6.9-6.96-2.74,0-4.93.75-6.09,1.45l.87,2.96c1.1-.7,2.78-1.27,4.47-1.27,2.74,0,3.13,1.51,3.13,2.49v.23c-5.91,0-9.62,2.03-9.62,6.2,0,2.55,1.91,4.93,5.21,4.93,2.03,0,3.7-.81,4.75-2.09h.12s.7,2.84,4.41,1.74c-.17-1.16-.23-2.44-.23-3.94v-5.75m7.19,5.12V13.99h-4.41v21.69h4.41v-4.58"/>
    <path class="cls-2" d="m107.12,14.02v16c0,2.2.41,3.77,1.27,4.7.75.81,2.03,1.33,3.6,1.33,1.27,0,2.61-.23,3.19-.47l-.06-3.42c-.47.12-.99.17-1.68.17-1.51,0-2.03-.99-2.03-2.96v-6.15h3.83v-4.17h-3.83v-5.1h-4.29m-11.42,5.45v16.29h4.52v-8.35c0-.47,0-.87.12-1.23.35-1.74,1.68-2.84,3.6-2.84.52,0,.93.06,1.33.12v-4.29c-.35-.06-.58-.12-.99-.12-1.68,0-3.65,1.1-4.47,3.42h-.12v-3.07h-4m-43.14.07v16.29h4.41v-9.57c0-.47.06-.93.23-1.33.35-.99,1.27-2.09,2.67-2.09,1.8,0,2.61,1.51,2.61,3.7v9.28h4.41v-9.68c0-.41.06-.93.17-1.33.35-1.1,1.33-1.97,2.67-1.97,1.8,0,2.67,1.51,2.67,4.06v8.93h4.41v-9.62c0-5.04-2.55-7.07-5.45-7.07-1.12-.01-2.23.29-3.19.87-.75.47-1.45,1.16-2.09,2.03h-.06c-.7-1.74-2.32-2.9-4.47-2.9-2.78,0-4,1.39-4.75,2.61h-.06v-2.2h-4.17"/>
  </g>
</svg>